<?xml version="1.0" encoding="utf-8"?>
<!-- Generator: Adobe Illustrator 22.0.0, SVG Export Plug-In . SVG Version: 6.00 Build 0)  -->
<svg version="1.1" id="Capa_1" xmlns="http://www.w3.org/2000/svg" xmlns:xlink="http://www.w3.org/1999/xlink" x="0px" y="0px"
	 viewBox="0 0 1440 720" style="enable-background:new 0 0 1440 720;" xml:space="preserve">
<style type="text/css">
	.st0{stroke:#1D1D1B;stroke-miterlimit:10;}
	.st1{fill:#9DD1C5;}
	.st2{fill:#FFFFFF;}
	.st3{fill:#A3C9EC;}
	.st4{fill:none;stroke:#1D1D1B;stroke-miterlimit:10;}
	.st5{fill:#586222;}
	.st6{fill:#1F2041;}
	.st7{fill:#211B20;}
	.st8{fill:#352E35;}
	.st9{fill:#150F13;}
	.st10{fill:#F5C911;}
	.st11{fill:#F0AD0B;}
	.st12{fill:#0F090B;}
	.st13{fill:#4A404B;}
	.st14{fill:#E6B900;}
	.st15{fill:#FFEC00;}
	.st16{fill:#E2A900;}
	.st17{fill:#BA8D00;}
	.st18{fill:#524854;}
	.st19{fill:#685A6B;}
	.st20{fill:#1F2041;stroke:#380909;stroke-width:5;stroke-miterlimit:10;}
</style>
<g>
	<g>
		<path class="st0" d="M1121.9,515.4l-18.1,18.2c0.2,0.4,0.4,0.8,0.6,1.2l5.1,5.1c2,1.1,4.3,1.8,6.8,1.8c7.6,0,13.7-6.2,13.7-13.8
			c0-2.2-0.5-4.2-1.4-6l-6.3-6.2C1122.2,515.5,1122.1,515.5,1121.9,515.4z"/>
		<g id="XMLID_1_">
			<g>
				<path d="M1085.6,478.2l34.6,34.6l-18.5,18.5l-34.6-34.6C1075,492.7,1081.5,486.1,1085.6,478.2z"/>
				<path class="st1" d="M1071.9,478.5c-5,6.4-12.2,10.9-20.4,12.4c-0.6,0.1-1.2,0.2-1.8,0.3C1057,486.9,1064.5,482.7,1071.9,478.5z
					"/>
				<path class="st1" d="M1045.3,424.1c17.2,0,31.4,12.9,33.4,29.5L1045.3,424.1z"/>
				<path class="st1" d="M1052.7,480.2c-0.1-1.4,0-2.7-0.1-4.1c-0.3-2.9-4-7.3-0.2-9.4c0.8-0.5,2.1-1.1,3.1-1.2
					c0.9-0.1,1.8,0.4,2.6,0.7c2.9,0.9,5.3,2.1,6.7,4.9c0.7,1.4,0.9,2.9,1.7,4.2c1.2,1.8,3.5,2.3,5.4,3.1
					c-7.4,4.2-14.9,8.5-22.3,12.7c-0.1,0-0.3,0-0.4,0.1c0.5-1.7,0.7-3.8,1.6-5.3c0.5-0.9,1.2-1.7,1.8-2.6
					C1053.2,482.3,1052.8,481.3,1052.7,480.2z"/>
				<path class="st2" d="M1049.6,491.2c-0.2,0.1-0.3,0.2-0.5,0.3c0-0.1,0-0.1,0.1-0.2C1049.3,491.2,1049.5,491.2,1049.6,491.2z"/>
				<path class="st1" d="M1078.8,453.6C1078.8,453.6,1078.8,453.7,1078.8,453.6c-3.1,1-6,2.8-8.1,5.3c-0.4,0.5-0.9,1.1-1.5,1.3
					c-0.4,0.2-0.9,0.2-1.4,0.2c-1.3,0-2.7,0-4,0c-0.2,0-0.4,0-0.6-0.1c-0.4-0.2-0.5-0.6-0.6-1c-0.5-1.8-1.1-3.6-2.1-5.2
					c-0.8-1.3-1.9-2.2-3-3.3c-0.1-0.1-0.2-0.2-0.2-0.3c0-0.1,0-0.3,0.1-0.4c1.5-2.9,3.1-5.9,3.4-9.2c0-0.2,0-0.4-0.1-0.6
					c-0.1-0.2-0.4-0.3-0.6-0.4c-1.8-0.5-3.6-0.9-5.2-1.9c-1.9-1.1-3.4-2.7-5-4.1c-0.8-0.7-1.6-1.3-2.5-1.9c-1.7-0.9-2.1-1.6-2.2-3.6
					c-0.1-1.5,0.2-3,0.2-4.5L1078.8,453.6z"/>
				<path class="st1" d="M1043.3,445.3c0.3-0.1,0.5-0.1,0.8,0c0,0,0.1,0,0.1,0c1.7,0.3,3.2,1,4.5,2.1c0.1,0.1,0.2,0.2,0.2,0.3
					c0,0.1-0.1,0.1-0.1,0.2c-0.8,0.7-1.7,1.3-2.6,1.9c-0.2,0.1-0.3,0.2-0.5,0.2s-0.3-0.1-0.5-0.2c-0.7-0.5-1.4-1-1.9-1.6
					C1042.7,447.5,1042,445.7,1043.3,445.3z"/>
				<path class="st1" d="M1035,468.4c-2.5,1.9-3.9,4.9-4.9,7.9c-1,3.3-2,6.7-2.9,10l-13.2-41.1c1.3,1.6,2.7,4.2,4.7,5
					c1.2,0.5,2.5,0.4,3.8,0.3c2.9-0.2,5.9-0.3,8.8-0.3c0.6,0,1.2,0,1.7,0.3c0.7,0.4,1,1.1,1.3,1.9c1.5,3.7,3,7.6,3.3,11.6
					c0.1,0.7,0.1,1.4-0.2,2C1037.1,467,1036,467.6,1035,468.4z"/>
				<path class="st1" d="M1014.1,445.1l13.2,41.1c-9.4-6-15.6-16.5-15.6-28.4C1011.7,453.3,1012.5,449,1014.1,445.1z"/>
				<path class="st3" d="M1070.7,458.9c2.1-2.5,5-4.3,8.1-5.2c0.2,1.3,0.2,2.7,0.2,4.1c0,7.8-2.7,15-7.1,20.7
					c-1.8-0.8-4.2-1.3-5.4-3.1c-0.8-1.3-1-2.9-1.7-4.2c-1.5-2.9-3.8-4-6.7-4.9c-0.8-0.3-1.7-0.8-2.6-0.7c-0.9,0.1-2.3,0.7-3.1,1.2
					c-3.7,2.1-0.1,6.5,0.2,9.4c0.2,1.4,0,2.7,0.1,4.1c0.1,1.1,0.4,2.1-0.2,3.1c-0.6,0.9-1.3,1.7-1.8,2.6c-0.8,1.6-1.1,3.6-1.6,5.3
					c-1.3,0.1-2.6,0.2-3.9,0.2c-6.6,0-12.8-1.9-18-5.2c0.9-3.3,1.9-6.7,2.9-10c0.9-3,2.4-6,4.9-7.9c0.9-0.7,2.1-1.3,2.5-2.4
					c0.3-0.6,0.2-1.3,0.2-2c-0.3-4-1.8-7.9-3.3-11.6c-0.3-0.7-0.6-1.5-1.3-1.9c-0.5-0.3-1.1-0.3-1.7-0.3c-3,0-5.9,0.1-8.8,0.3
					c-1.3,0.1-2.6,0.2-3.8-0.3c-2-0.9-3.4-3.4-4.7-5c5-12.3,17.1-21,31.2-21c0,1.5-0.3,3-0.2,4.5c0.1,2,0.5,2.7,2.2,3.6
					c0.9,0.5,1.7,1.2,2.5,1.9c1.7,1.4,3.2,3,5,4.1c1.6,1,3.4,1.4,5.2,1.9c0.2,0.1,0.5,0.2,0.6,0.4c0.1,0.2,0.1,0.4,0.1,0.6
					c-0.3,3.3-1.9,6.3-3.4,9.2c-0.1,0.1-0.1,0.2-0.1,0.4c0,0.1,0.1,0.2,0.2,0.3c1.1,1,2.2,2,3,3.3c1,1.6,1.6,3.4,2.1,5.2
					c0.1,0.4,0.2,0.8,0.6,1c0.2,0.1,0.4,0.1,0.6,0.1c1.3,0,2.7,0,4,0c0.5,0,1,0,1.4-0.2C1069.8,460,1070.2,459.4,1070.7,458.9z
					 M1048.8,447.8c0-0.1-0.1-0.2-0.2-0.3c-1.2-1.1-2.8-1.9-4.5-2.1c0,0-0.1,0-0.1,0c-0.3,0-0.5-0.1-0.8,0c-1.3,0.4-0.6,2.2,0,2.9
					c0.5,0.7,1.2,1.1,1.9,1.6c0.1,0.1,0.3,0.2,0.5,0.2s0.3-0.1,0.5-0.2c0.9-0.6,1.8-1.2,2.6-1.9
					C1048.7,447.9,1048.8,447.9,1048.8,447.8z"/>
				<path d="M1045.3,416.7c22.7,0,41,18.4,41,41c0,22.7-18.4,41-41,41c-22.7,0-41-18.4-41-41
					C1004.3,435.1,1022.7,416.7,1045.3,416.7z M1078.8,453.7C1078.8,453.7,1078.8,453.6,1078.8,453.7c-2.1-16.7-16.2-29.6-33.4-29.6
					c-14.1,0-26.2,8.7-31.2,21c-1.6,3.9-2.5,8.2-2.5,12.7c0,12,6.2,22.5,15.6,28.4c5.2,3.3,11.4,5.2,18,5.2c1.3,0,2.6-0.1,3.9-0.2
					c0,0.1,0,0.1-0.1,0.2c0.2-0.1,0.3-0.2,0.5-0.3c0.6-0.1,1.2-0.2,1.8-0.3c8.3-1.5,15.5-6,20.4-12.4c4.5-5.7,7.1-12.9,7.1-20.7
					C1079,456.4,1078.9,455,1078.8,453.7z"/>
			</g>
			<g>
				<path class="st4" d="M1086.4,457.8c0,22.7-18.4,41-41,41c-22.7,0-41-18.4-41-41c0-22.7,18.4-41,41-41
					C1068,416.7,1086.4,435.1,1086.4,457.8z"/>
				<path class="st4" d="M1049.2,491.2c-1.3,0.1-2.6,0.2-3.9,0.2c-6.6,0-12.8-1.9-18-5.2c-9.4-6-15.6-16.5-15.6-28.4
					c0-4.5,0.9-8.8,2.5-12.7c5-12.3,17.1-21,31.2-21c17.2,0,31.4,12.9,33.4,29.5c0,0,0,0.1,0,0.1c0.2,1.3,0.2,2.7,0.2,4.1
					c0,7.8-2.7,15-7.1,20.7c-5,6.4-12.2,10.9-20.4,12.4c-0.6,0.1-1.2,0.2-1.8,0.3"/>
				<path class="st4" d="M1014.1,445.1c1.3,1.6,2.7,4.2,4.7,5c1.2,0.5,2.5,0.4,3.8,0.3c2.9-0.2,5.9-0.3,8.8-0.3c0.6,0,1.2,0,1.7,0.3
					c0.7,0.4,1,1.1,1.3,1.9c1.5,3.7,3,7.6,3.3,11.6c0.1,0.7,0.1,1.4-0.2,2c-0.4,1.1-1.6,1.7-2.5,2.4c-2.5,1.9-3.9,4.9-4.9,7.9
					c-1,3.3-2,6.7-2.9,10"/>
				<path class="st4" d="M1049.1,491.4c0-0.1,0-0.1,0.1-0.2c0.5-1.7,0.7-3.8,1.6-5.3c0.5-0.9,1.2-1.7,1.8-2.6c0.7-1,0.3-2,0.2-3.1
					c-0.1-1.4,0-2.7-0.1-4.1c-0.3-2.9-4-7.3-0.2-9.4c0.8-0.5,2.1-1.1,3.1-1.2c0.9-0.1,1.8,0.4,2.6,0.7c2.9,0.9,5.3,2.1,6.7,4.9
					c0.7,1.4,0.9,2.9,1.7,4.2c1.2,1.8,3.5,2.3,5.4,3.1"/>
				<path class="st4" d="M1045.3,424.1c0,1.5-0.3,3-0.2,4.5c0.1,2,0.5,2.7,2.2,3.6c0.9,0.5,1.7,1.2,2.5,1.9c1.7,1.4,3.2,3,5,4.1
					c1.6,1,3.4,1.4,5.2,1.9c0.2,0.1,0.5,0.2,0.6,0.4c0.1,0.2,0.1,0.4,0.1,0.6c-0.3,3.3-1.9,6.3-3.4,9.2c-0.1,0.1-0.1,0.2-0.1,0.4
					c0,0.1,0.1,0.2,0.2,0.3c1.1,1,2.2,2,3,3.3c1,1.6,1.6,3.4,2.1,5.2c0.1,0.4,0.2,0.8,0.6,1c0.2,0.1,0.4,0.1,0.6,0.1
					c1.3,0,2.7,0,4,0c0.5,0,1,0,1.4-0.2c0.6-0.3,1.1-0.8,1.5-1.3c2.1-2.5,5-4.3,8.1-5.2c0,0,0,0,0,0"/>
				<path class="st4" d="M1044,445.3c-0.3,0-0.5-0.1-0.8,0c-1.3,0.4-0.6,2.2,0,2.9c0.5,0.7,1.2,1.1,1.9,1.6c0.1,0.1,0.3,0.2,0.5,0.2
					s0.3-0.1,0.5-0.2c0.9-0.6,1.8-1.2,2.6-1.9c0.1-0.1,0.1-0.1,0.1-0.2c0-0.1-0.1-0.2-0.2-0.3C1047.4,446.4,1045.8,445.6,1044,445.3
					C1044.1,445.3,1044.1,445.3,1044,445.3z"/>
				<path class="st4" d="M1120.2,512.8l-34.6-34.6c-4.1,8-10.6,14.5-18.5,18.5l34.6,34.6L1120.2,512.8z"/>
			</g>
		</g>
	</g>
	<g>
		<path class="st5" d="M435.5,455v53.7c0,11.8-3.1,20.6-9.2,26.4c-6.2,5.8-15.1,8.6-27,8.6c-6.2,0-12.1-0.8-17.7-2.3
			c-5.6-1.5-10.2-3.7-13.9-6.6l7.4-13.4c2.7,2.2,6.2,4,10.3,5.3c4.2,1.3,8.3,2,12.5,2c6.5,0,11.2-1.5,14.3-4.4
			c3.1-2.9,4.6-7.3,4.6-13.2v-2.8c-4.9,5.4-11.7,8-20.4,8c-5.9,0-11.3-1.3-16.2-3.9c-4.9-2.6-8.8-6.3-11.7-11
			c-2.9-4.7-4.3-10.1-4.3-16.3c0-6.2,1.4-11.6,4.3-16.3c2.9-4.7,6.8-8.4,11.7-11c4.9-2.6,10.3-3.9,16.2-3.9c9.3,0,16.5,3.1,21.3,9.2
			V455H435.5z M412.3,496.7c3.2-2.9,4.7-6.7,4.7-11.4c0-4.7-1.6-8.5-4.7-11.4c-3.2-2.9-7.2-4.4-12.2-4.4c-5,0-9,1.5-12.2,4.4
			c-3.2,2.9-4.8,6.7-4.8,11.4c0,4.7,1.6,8.5,4.8,11.4c3.2,2.9,7.3,4.4,12.2,4.4C405.1,501,409.1,499.6,412.3,496.7z"/>
		<path class="st5" d="M515.7,492.5h-48.8c0.9,4,3,7.2,6.2,9.5c3.3,2.3,7.4,3.5,12.2,3.5c3.4,0,6.3-0.5,8.9-1.5c2.6-1,5-2.6,7.3-4.7
			l9.9,10.8c-6.1,7-14.9,10.4-26.6,10.4c-7.3,0-13.7-1.4-19.3-4.3c-5.6-2.8-9.9-6.8-12.9-11.8c-3-5-4.6-10.7-4.6-17.1
			c0-6.3,1.5-12,4.5-17.1c3-5.1,7.1-9,12.3-11.9c5.2-2.8,11.1-4.3,17.6-4.3c6.3,0,12,1.4,17.1,4.1c5.1,2.7,9.1,6.6,12,11.7
			c2.9,5.1,4.4,11,4.4,17.7C516,487.7,515.9,489.4,515.7,492.5z M471.9,471.8c-2.9,2.4-4.6,5.7-5.3,9.8h31.8
			c-0.6-4.1-2.4-7.3-5.3-9.8c-2.9-2.4-6.4-3.7-10.5-3.7C478.3,468.2,474.8,469.4,471.9,471.8z"/>
		<path class="st5" d="M540.9,516.2c-5.4-2.8-9.6-6.8-12.6-11.8c-3-5-4.6-10.7-4.6-17.1c0-6.4,1.5-12.1,4.6-17.1
			c3-5,7.3-9,12.6-11.8c5.4-2.8,11.5-4.3,18.3-4.3c6.8,0,12.9,1.4,18.2,4.3c5.4,2.8,9.5,6.8,12.6,11.8c3,5,4.6,10.7,4.6,17.1
			c0,6.4-1.5,12.1-4.6,17.1c-3,5-7.2,9-12.6,11.8c-5.4,2.8-11.4,4.3-18.2,4.3C552.4,520.5,546.3,519,540.9,516.2z M571,500.3
			c3.1-3.2,4.6-7.6,4.6-13c0-5.4-1.5-9.8-4.6-13c-3.1-3.2-7-4.9-11.8-4.9s-8.7,1.6-11.9,4.9c-3.1,3.2-4.7,7.6-4.7,13
			c0,5.4,1.6,9.8,4.7,13c3.1,3.2,7.1,4.9,11.9,4.9S567.9,503.5,571,500.3z"/>
		<path class="st6" d="M619.6,516.2c-5.5-2.8-9.7-6.8-12.8-11.8c-3.1-5-4.6-10.7-4.6-17.1c0-6.4,1.5-12.1,4.6-17.1
			c3.1-5,7.4-9,12.8-11.8c5.5-2.8,11.6-4.3,18.5-4.3c6.8,0,12.7,1.4,17.8,4.3c5.1,2.8,8.8,6.9,11.1,12.2l-14.5,7.8
			c-3.4-5.9-8.2-8.9-14.5-8.9c-4.9,0-8.9,1.6-12.1,4.8c-3.2,3.2-4.8,7.6-4.8,13.1c0,5.5,1.6,9.9,4.8,13.1c3.2,3.2,7.2,4.8,12.1,4.8
			c6.4,0,11.2-3,14.5-8.9l14.5,7.9c-2.3,5.1-6,9.1-11.1,12c-5.1,2.9-11,4.3-17.8,4.3C631.3,520.5,625.1,519,619.6,516.2z"/>
		<path class="st6" d="M772.5,456.5c3.8-1.6,8.2-2.4,13.1-2.4v17.3c-2.1-0.2-3.5-0.2-4.2-0.2c-5.4,0-9.5,1.5-12.6,4.5
			c-3,3-4.6,7.5-4.6,13.5v30.4h-18.7V455h17.9v8.5C765.7,460.4,768.8,458.1,772.5,456.5z"/>
		<path class="st6" d="M840.7,516.4c-1.8,1.4-4.1,2.4-6.8,3.1c-2.7,0.7-5.5,1-8.4,1c-7.7,0-13.6-2-17.8-5.9
			c-4.2-3.9-6.3-9.7-6.3-17.3v-26.5h-9.9v-14.4h9.9v-15.7h18.7v15.7h16.1v14.4h-16.1v26.2c0,2.7,0.7,4.8,2.1,6.3
			c1.4,1.5,3.4,2.2,5.9,2.2c3,0,5.5-0.8,7.6-2.4L840.7,516.4z"/>
		<path class="st6" d="M861.6,516.2c-5.4-2.8-9.6-6.8-12.6-11.8c-3-5-4.6-10.7-4.6-17.1c0-6.4,1.5-12.1,4.6-17.1
			c3-5,7.3-9,12.6-11.8c5.4-2.8,11.5-4.3,18.3-4.3c6.8,0,12.9,1.4,18.2,4.3c5.4,2.8,9.5,6.8,12.6,11.8c3,5,4.6,10.7,4.6,17.1
			c0,6.4-1.5,12.1-4.6,17.1c-3,5-7.2,9-12.6,11.8c-5.4,2.8-11.4,4.3-18.2,4.3C873.1,520.5,867,519,861.6,516.2z M891.7,500.3
			c3.1-3.2,4.6-7.6,4.6-13c0-5.4-1.5-9.8-4.6-13c-3.1-3.2-7-4.9-11.8-4.9s-8.7,1.6-11.9,4.9c-3.1,3.2-4.7,7.6-4.7,13
			c0,5.4,1.6,9.8,4.7,13c3.1,3.2,7.1,4.9,11.9,4.9S888.6,503.5,891.7,500.3z"/>
		<path class="st6" d="M933.7,518.5c-5.1-1.3-9.2-3-12.2-5l6.2-13.4c2.9,1.8,6.4,3.3,10.4,4.5c4.1,1.2,8.1,1.7,12,1.7
			c7.9,0,11.9-2,11.9-5.9c0-1.8-1.1-3.2-3.2-4c-2.2-0.8-5.5-1.5-9.9-2c-5.3-0.8-9.6-1.7-13.1-2.8c-3.4-1-6.4-2.9-8.9-5.5
			s-3.8-6.4-3.8-11.3c0-4.1,1.2-7.7,3.5-10.8c2.4-3.2,5.8-5.6,10.3-7.4c4.5-1.8,9.8-2.6,16-2.6c4.6,0,9.1,0.5,13.6,1.5
			c4.5,1,8.2,2.4,11.2,4.1l-6.2,13.3c-5.7-3.2-11.9-4.8-18.6-4.8c-4,0-7,0.6-9,1.7c-2,1.1-3,2.6-3,4.3c0,2,1.1,3.4,3.2,4.2
			c2.2,0.8,5.6,1.6,10.3,2.3c5.3,0.9,9.6,1.8,12.9,2.8c3.4,1,6.3,2.8,8.7,5.5c2.5,2.6,3.7,6.3,3.7,11c0,4-1.2,7.6-3.6,10.7
			c-2.4,3.1-5.9,5.5-10.5,7.3c-4.6,1.7-10,2.6-16.4,2.6C944,520.5,938.8,519.8,933.7,518.5z"/>
	</g>
	<g>
		<path class="st7" d="M701.2,281.4c0,7.8-27.4,16-27.4,37.7c0,28.2,16.8,34.4,36.9,34.4c26.4,0,27-35.7,27.2-40.7
			c0.2-5-13-2.6-13.9,1.5c-0.9,4.1-2.3,17-13.6,17.1c-10.2,0.1-14.7-11.2-11.7-18.3c4.8-11.2,23.5-20.3,23.5-28.8
			c0-7.8-0.2-19.2-0.2-19.2h-20.9C701.2,265.2,701.2,273.6,701.2,281.4z"/>
		<path class="st8" d="M723.2,323.7c1.8-1.9,5.6-17.5,11.5-11.7c0.5,0.5-8.7,10.3-11.5,11"/>
		<path class="st9" d="M681.6,306.8c-9.9,8.6-3.1,34.3,4,40.7c4.8,4.2,35.1,11.3,34.5-1.3c-9-0.2-22.1-1.1-28.7-8.1
			C684,330.2,681.9,317,681.6,306.8"/>
		<path class="st8" d="M706.9,266.9c4,0,8-0.1,12,0.1c1.1,5.6,3.9,17.7-1,22.2c-0.2-4.1,2.1-10.8,0-14.6c-2.2-4-7.5-3.4-10.4-6.5"/>
		<path class="st10" d="M725.3,265.8c0,0-2.3,3.9-13.8,3.9c-11.4,0-13.8-3.9-13.8-3.9v-21.7h27.6V265.8z"/>
		<path class="st11" d="M708.6,248.5c6.9,1.7,12.2,5,16.7,9.3v-13.7h-27.6v3.6C701.3,247.4,705,247.6,708.6,248.5z"/>
		<path class="st7" d="M718.3,254.4c0,3.8-3.1,6.8-6.8,6.8c-3.8,0-6.8-3.1-6.8-6.8c0-3.8,3.1-6.8,6.8-6.8
			C715.3,247.6,718.3,250.6,718.3,254.4z"/>
		<path class="st8" d="M716.1,254.4c0,2.5-2.1,4.6-4.6,4.6c-2.6,0-4.6-2.1-4.6-4.6c0-2.5,2.1-4.6,4.6-4.6
			C714,249.8,716.1,251.9,716.1,254.4z"/>
		<path class="st7" d="M729.8,135.8v-45c0-2.8-2.2-5-5-5h-28c-2.8,0-5,2.2-5,5v45H729.8z"/>
		<path class="st12" d="M705.3,114.6c-5.1-3.8-9.8-7.9-13.6-12.6v33.7h38V127C720.9,124.9,713.3,120.6,705.3,114.6z"/>
		<path class="st13" d="M723.8,87.7h-24.2c-1.7,0,22.4,2.2,22.4,2.2c2.4,0,4.3,2.2,4.3,4.9l1.8,19.5V92.6
			C728.2,89.8,726.2,87.7,723.8,87.7z"/>
		<path class="st14" d="M752,135.8c-11.5,0-72.4,0-84.7,0c-12.3,0-16.8,7.1-16.8,14.6c0,7.4,0,53.6,0,53.6l20.9,17.9H749l16.7-17.9
			c0,0,0-47.7,0-53.6C765.7,144.4,763.5,135.8,752,135.8z"/>
		<path class="st15" d="M752.7,137.4c-10.3,0-76.2,0-76.2,0s62.1,3.4,72.5,3.4c10.3,0,12.3,7.8,12.3,13.1c0,5.3,3.8,44.9,3.8,44.9
			s0-43,0-48.3C765,145.2,763,137.4,752.7,137.4z"/>
		<path class="st16" d="M747.6,148.7c-10.3,0-65.1,0-76.2,0c-11.1,0-15.1,6.4-15.1,13.1c0,6.7,0,39.6,0,39.6l18.8,16.1h69.8l15-16.1
			c0,0,0-34.3,0-39.6C759.9,156.5,757.9,148.7,747.6,148.7z"/>
		<rect x="679.2" y="233.3" class="st17" width="63" height="3"/>
		<rect x="675.1" y="236.3" class="st14" width="70.2" height="9.2"/>
		<rect x="675.1" y="240.9" class="st16" width="70.2" height="4.6"/>
		<rect x="675.1" y="224.2" class="st16" width="70.2" height="9.2"/>
		<rect x="671.4" y="221.8" class="st14" width="77.6" height="4.7"/>
		<path class="st7" d="M693.8,148.7c-10.1,0-18.7,0-22.4,0c-11.1,0-15.1,6.4-15.1,13.1c0,3,0,11.4,0,19.7L693.8,148.7z"/>
		<path class="st7" d="M747.6,148.7c-4,0-14.7,0-27,0l-62.3,54.5l16.8,14.3h13.3l70.5-61.7C757.5,152,754.3,148.7,747.6,148.7z"/>
		<path class="st7" d="M719.5,217.5h25.4l15-16.1c0,0,0-9.5,0-19.3L719.5,217.5z"/>
		<path class="st18" d="M718.1,161.6c0,5.5-4.5,10-10,10c-5.5,0-10-4.5-10-10c0-5.5,4.5-10,10-10
			C713.6,151.6,718.1,156.1,718.1,161.6z"/>
		<path class="st19" d="M714.5,161.6c0,3.6-2.9,6.4-6.4,6.4c-3.6,0-6.4-2.9-6.4-6.4c0-3.6,2.9-6.4,6.4-6.4
			C711.7,155.2,714.5,158.1,714.5,161.6z"/>
	</g>
	<g>
		<path class="st6" d="M715.2,411.3c6.6,2.8,11.4,8.7,14.5,17.8l11.8,34.9l-16.6,5.6l-2.6-7.6c-1.4,6.8-6.7,11.7-15.8,14.8
			c-4.7,1.6-9,2.2-13,1.7c-4-0.4-7.4-1.7-10.1-3.9c-2.8-2.2-4.7-5.1-5.9-8.6c-1.9-5.7-1.3-10.9,1.9-15.6c3.2-4.7,9.2-8.6,18.2-11.6
			l14.1-4.8c-1.3-3.9-3.5-6.4-6.5-7.7c-3-1.3-6.9-1.1-11.6,0.4c-3.3,1.1-6.3,2.7-9.1,4.8c-2.8,2.1-5,4.4-6.6,6.8l-10.5-10.2
			c2.5-3.5,5.9-6.6,10.1-9.5c4.2-2.9,8.8-5.1,13.7-6.8C700.6,408.7,708.6,408.5,715.2,411.3z M714.3,458.5c1.9-2.2,2.8-4.8,2.9-7.9
			l-2.1-6.2l-12.2,4.1c-7.3,2.5-10.1,6.1-8.5,10.8c0.8,2.3,2.3,3.8,4.5,4.5c2.2,0.7,4.9,0.6,8-0.5
			C710,462.3,712.5,460.7,714.3,458.5z"/>
	</g>
	<line class="st20" x1="709.9" y1="410" x2="710.5" y2="331.4"/>
	<g>
		<path class="st16" d="M468.5,601.9v6.5h-27v-34.9h26.4v6.5h-18.4v7.6h16.2v6.3h-16.2v8.1H468.5z"/>
		<path class="st16" d="M507,573.5v34.9h-6.6l-17.4-21.2v21.2h-8v-34.9h6.7l17.4,21.2v-21.2H507z"/>
		<path class="st16" d="M536.4,606.7c-2.9-1.5-5.1-3.7-6.8-6.4c-1.6-2.7-2.5-5.8-2.5-9.3s0.8-6.6,2.5-9.3c1.6-2.7,3.9-4.9,6.8-6.4
			c2.9-1.5,6.1-2.3,9.7-2.3c3,0,5.8,0.5,8.2,1.6c2.4,1.1,4.5,2.6,6.2,4.6l-5.2,4.8c-2.4-2.7-5.3-4.1-8.8-4.1c-2.2,0-4.1,0.5-5.8,1.4
			s-3,2.3-4,4c-0.9,1.7-1.4,3.6-1.4,5.8s0.5,4.1,1.4,5.8c0.9,1.7,2.3,3,4,4s3.6,1.4,5.8,1.4c3.5,0,6.4-1.4,8.8-4.1l5.2,4.8
			c-1.7,2-3.7,3.6-6.2,4.6c-2.5,1.1-5.2,1.6-8.2,1.6C542.5,609,539.3,608.2,536.4,606.7z"/>
		<path class="st16" d="M572.3,606.6c-2.9-1.6-5.2-3.7-6.8-6.5c-1.6-2.7-2.5-5.8-2.5-9.3s0.8-6.5,2.5-9.3c1.6-2.7,3.9-4.9,6.8-6.5
			c2.9-1.6,6.2-2.3,9.8-2.3c3.6,0,6.9,0.8,9.8,2.3c2.9,1.6,5.2,3.7,6.8,6.5c1.7,2.7,2.5,5.8,2.5,9.3s-0.8,6.5-2.5,9.3
			c-1.7,2.7-3.9,4.9-6.8,6.5s-6.2,2.3-9.8,2.3C578.5,609,575.2,608.2,572.3,606.6z M587.7,600.7c1.7-0.9,3-2.3,3.9-4
			c0.9-1.7,1.4-3.6,1.4-5.8s-0.5-4.1-1.4-5.8c-0.9-1.7-2.3-3-3.9-4c-1.7-0.9-3.5-1.4-5.6-1.4c-2.1,0-3.9,0.5-5.6,1.4
			c-1.7,0.9-3,2.3-3.9,4c-0.9,1.7-1.4,3.6-1.4,5.8s0.5,4.1,1.4,5.8c0.9,1.7,2.3,3,3.9,4c1.7,0.9,3.5,1.4,5.6,1.4
			C584.2,602.1,586,601.6,587.7,600.7z"/>
		<path class="st16" d="M639.3,573.5v34.9h-6.6l-17.4-21.2v21.2h-8v-34.9h6.7l17.4,21.2v-21.2H639.3z"/>
		<path class="st16" d="M651.1,607.9c-2.6-0.7-4.6-1.7-6.2-2.9l2.7-6.1c1.5,1.1,3.3,2,5.3,2.6c2.1,0.7,4.1,1,6.2,1
			c2.3,0,4-0.3,5.1-1c1.1-0.7,1.6-1.6,1.6-2.7c0-0.8-0.3-1.5-1-2.1s-1.5-1-2.5-1.3c-1-0.3-2.4-0.7-4.1-1.1c-2.7-0.6-4.8-1.3-6.5-1.9
			s-3.2-1.6-4.4-3c-1.2-1.4-1.8-3.3-1.8-5.6c0-2,0.5-3.9,1.6-5.5s2.8-3,5-3.9s4.9-1.4,8.1-1.4c2.2,0,4.4,0.3,6.5,0.8
			c2.1,0.5,4,1.3,5.6,2.3l-2.5,6.1c-3.2-1.8-6.5-2.7-9.7-2.7c-2.3,0-3.9,0.4-5,1.1c-1.1,0.7-1.6,1.7-1.6,2.9s0.6,2.1,1.9,2.7
			c1.2,0.6,3.2,1.2,5.7,1.7c2.7,0.6,4.8,1.3,6.5,1.9c1.7,0.6,3.2,1.6,4.4,3c1.2,1.4,1.8,3.2,1.8,5.5c0,2-0.6,3.8-1.7,5.5
			c-1.1,1.6-2.8,3-5,3.9c-2.2,1-4.9,1.4-8.1,1.4C656.3,609,653.7,608.6,651.1,607.9z"/>
		<path class="st16" d="M686.2,580H675v-6.6h30.4v6.6h-11.2v28.3h-8.1V580z"/>
		<path class="st16" d="M732,608.4l-6.7-9.7h-0.4h-7v9.7h-8.1v-34.9h15.1c3.1,0,5.8,0.5,8.1,1.5c2.3,1,4,2.5,5.3,4.4
			c1.2,1.9,1.8,4.1,1.8,6.7c0,2.6-0.6,4.8-1.9,6.7c-1.2,1.9-3,3.3-5.3,4.3l7.8,11.2H732z M730,581.6c-1.3-1-3.1-1.6-5.5-1.6h-6.6
			v12.2h6.6c2.4,0,4.3-0.5,5.5-1.6c1.3-1.1,1.9-2.6,1.9-4.5C731.9,584.2,731.2,582.7,730,581.6z"/>
		<path class="st16" d="M750.3,604.8c-2.8-2.8-4.2-6.7-4.2-11.8v-19.6h8.1v19.3c0,6.3,2.6,9.4,7.8,9.4c2.5,0,4.5-0.8,5.8-2.3
			s2-3.9,2-7.1v-19.3h8V593c0,5.1-1.4,9.1-4.2,11.8S767,609,762,609C757,609,753.1,607.6,750.3,604.8z"/>
		<path class="st16" d="M792.8,606.7c-2.9-1.5-5.1-3.7-6.8-6.4c-1.6-2.7-2.5-5.8-2.5-9.3s0.8-6.6,2.5-9.3c1.6-2.7,3.9-4.9,6.8-6.4
			c2.9-1.5,6.1-2.3,9.7-2.3c3,0,5.8,0.5,8.2,1.6c2.4,1.1,4.5,2.6,6.2,4.6l-5.2,4.8c-2.4-2.7-5.3-4.1-8.8-4.1c-2.2,0-4.1,0.5-5.8,1.4
			c-1.7,0.9-3,2.3-4,4s-1.4,3.6-1.4,5.8s0.5,4.1,1.4,5.8s2.3,3,4,4c1.7,0.9,3.6,1.4,5.8,1.4c3.5,0,6.4-1.4,8.8-4.1l5.2,4.8
			c-1.7,2-3.7,3.6-6.2,4.6c-2.5,1.1-5.2,1.6-8.2,1.6C798.9,609,795.7,608.2,792.8,606.7z"/>
		<path class="st16" d="M828.6,606.7c-2.9-1.5-5.1-3.7-6.8-6.4s-2.5-5.8-2.5-9.3s0.8-6.6,2.5-9.3s3.9-4.9,6.8-6.4
			c2.9-1.5,6.1-2.3,9.7-2.3c3,0,5.8,0.5,8.2,1.6c2.4,1.1,4.5,2.6,6.2,4.6l-5.2,4.8c-2.4-2.7-5.3-4.1-8.8-4.1c-2.2,0-4.1,0.5-5.8,1.4
			s-3,2.3-4,4c-0.9,1.7-1.4,3.6-1.4,5.8s0.5,4.1,1.4,5.8c0.9,1.7,2.3,3,4,4s3.6,1.4,5.8,1.4c3.5,0,6.4-1.4,8.8-4.1l5.2,4.8
			c-1.7,2-3.7,3.6-6.2,4.6c-2.5,1.1-5.2,1.6-8.2,1.6C834.7,609,831.5,608.2,828.6,606.7z"/>
		<path class="st16" d="M858.1,573.5h8.1v34.9h-8.1V573.5z"/>
		<path class="st16" d="M881.6,606.6c-2.9-1.6-5.2-3.7-6.8-6.5s-2.5-5.8-2.5-9.3s0.8-6.5,2.5-9.3s3.9-4.9,6.8-6.5
			c2.9-1.6,6.2-2.3,9.8-2.3c3.6,0,6.9,0.8,9.8,2.3c2.9,1.6,5.2,3.7,6.8,6.5c1.7,2.7,2.5,5.8,2.5,9.3s-0.8,6.5-2.5,9.3
			c-1.7,2.7-3.9,4.9-6.8,6.5s-6.2,2.3-9.8,2.3C887.8,609,884.5,608.2,881.6,606.6z M897,600.7c1.7-0.9,3-2.3,3.9-4s1.4-3.6,1.4-5.8
			s-0.5-4.1-1.4-5.8s-2.3-3-3.9-4c-1.7-0.9-3.5-1.4-5.6-1.4c-2.1,0-3.9,0.5-5.6,1.4s-3,2.3-3.9,4c-0.9,1.7-1.4,3.6-1.4,5.8
			s0.5,4.1,1.4,5.8c0.9,1.7,2.3,3,3.9,4s3.5,1.4,5.6,1.4C893.5,602.1,895.3,601.6,897,600.7z M893.6,563.4h8.4l-9,7.2h-6.1
			L893.6,563.4z"/>
		<path class="st16" d="M948.6,573.5v34.9H942l-17.4-21.2v21.2h-8v-34.9h6.7l17.4,21.2v-21.2H948.6z"/>
		<path class="st16" d="M955.9,607.4c-0.9-0.9-1.4-2.1-1.4-3.5c0-1.4,0.5-2.6,1.4-3.5s2.1-1.3,3.4-1.3s2.5,0.4,3.4,1.3
			c0.9,0.9,1.4,2,1.4,3.5c0,1.4-0.5,2.6-1.4,3.5c-0.9,0.9-2.1,1.4-3.4,1.4S956.8,608.3,955.9,607.4z"/>
		<path class="st16" d="M969,607.4c-0.9-0.9-1.4-2.1-1.4-3.5c0-1.4,0.5-2.6,1.4-3.5s2.1-1.3,3.4-1.3s2.5,0.4,3.4,1.3
			c0.9,0.9,1.4,2,1.4,3.5c0,1.4-0.5,2.6-1.4,3.5c-0.9,0.9-2.1,1.4-3.4,1.4S969.9,608.3,969,607.4z"/>
		<path class="st16" d="M982,607.4c-0.9-0.9-1.4-2.1-1.4-3.5c0-1.4,0.5-2.6,1.4-3.5s2.1-1.3,3.4-1.3s2.5,0.4,3.4,1.3
			c0.9,0.9,1.4,2,1.4,3.5c0,1.4-0.5,2.6-1.4,3.5c-0.9,0.9-2.1,1.4-3.4,1.4S983,608.3,982,607.4z"/>
	</g>
</g>
</svg>
